HIERARCHY
ROOT Hips
{
  OFFSET 5.72205e-005 65.662 3.42586
  CHANNELS 6 Xposition Yposition Zposition Zrotation Xrotation Yrotation
  JOINT Chest
  {
    OFFSET 0 8.7983 -4.7612
    CHANNELS 6 Xposition Yposition Zposition Zrotation Xrotation Yrotation
    JOINT Chest2
    {
      OFFSET 0 8.0291 0.4195
      CHANNELS 6 Xposition Yposition Zposition Zrotation Xrotation Yrotation
      JOINT Chest3
      {
        OFFSET 0 9.9351 -2.2114
        CHANNELS 6 Xposition Yposition Zposition Zrotation Xrotation Yrotation
        JOINT Neck
        {
          OFFSET 0 22.3885 -0.4656
          CHANNELS 6 Xposition Yposition Zposition Zrotation Xrotation Yrotation
          JOINT Head
          {
            OFFSET -0.0001 12.643 3.4389
            CHANNELS 6 Xposition Yposition Zposition Zrotation Xrotation Yrotation
            End Site
            {
              OFFSET 0.0001 17.6655 0.5274
            }
          }
        }
        JOINT LeftCollar
        {
          OFFSET 2.2603 21.606 7.4023
          CHANNELS 6 Xposition Yposition Zposition Zrotation Xrotation Yrotation
          JOINT LeftShoulder
          {
            OFFSET 13.5163 -1.1332 -5.0146
            CHANNELS 6 Xposition Yposition Zposition Zrotation Xrotation Yrotation
            JOINT LeftElbow
            {
              OFFSET -0.0995 -28.05 -0.2431
              CHANNELS 6 Xposition Yposition Zposition Zrotation Xrotation Yrotation
              JOINT LeftWrist
              {
                OFFSET 0.0679 -23.3996 -0.1402
                CHANNELS 6 Xposition Yposition Zposition Zrotation Xrotation Yrotation
                JOINT LeftFinger1
                {
                  OFFSET 0.7932 -9.069 2.5189
                  CHANNELS 6 Xposition Yposition Zposition Zrotation Xrotation Yrotation
                  JOINT LeftFinger11
                  {
                    OFFSET -0.8272 -3.3923 0.5977
                    CHANNELS 6 Xposition Yposition Zposition Zrotation Xrotation Yrotation
                    JOINT LeftFinger12
                    {
                      OFFSET -0.5649 -2.3158 0.4082
                      CHANNELS 6 Xposition Yposition Zposition Zrotation Xrotation Yrotation
                      End Site
                      {
                        OFFSET -0.4919 -1.6479 0.2673
                      }
                    }
                  }
                }
                JOINT LeftFinger2
                {
                  OFFSET 0.9159 -9.2044 0.2193
                  CHANNELS 6 Xposition Yposition Zposition Zrotation Xrotation Yrotation
                  JOINT LeftFinger21
                  {
                    OFFSET 0.0117 -4.1944 -0.0248
                    CHANNELS 6 Xposition Yposition Zposition Zrotation Xrotation Yrotation
                    JOINT LeftFinger22
                    {
                      OFFSET 0.0071 -2.3249 -0.0142
                      CHANNELS 6 Xposition Yposition Zposition Zrotation Xrotation Yrotation
                      End Site
                      {
                        OFFSET -0.1475 -2.0882 0.0028
                      }
                    }
                  }
                }
                JOINT LeftFinger3
                {
                  OFFSET 0.6113 -8.7231 -2.0637
                  CHANNELS 6 Xposition Yposition Zposition Zrotation Xrotation Yrotation
                  JOINT LeftFinger31
                  {
                    OFFSET -0.1927 -3.8059 -0.2383
                    CHANNELS 6 Xposition Yposition Zposition Zrotation Xrotation Yrotation
                    JOINT LeftFinger32
                    {
                      OFFSET -0.1091 -2.1688 -0.1362
                      CHANNELS 6 Xposition Yposition Zposition Zrotation Xrotation Yrotation
                      End Site
                      {
                        OFFSET -0.2358 -1.9176 -0.0906
                      }
                    }
                  }
                }
                JOINT LeftFinger4
                {
                  OFFSET -0.6151 -8.0947 -3.5641
                  CHANNELS 6 Xposition Yposition Zposition Zrotation Xrotation Yrotation
                  JOINT LeftFinger41
                  {
                    OFFSET -0.4882 -2.341 -0.6462
                    CHANNELS 6 Xposition Yposition Zposition Zrotation Xrotation Yrotation
                    JOINT LeftFinger42
                    {
                      OFFSET -0.3575 -1.7167 -0.4742
                      CHANNELS 6 Xposition Yposition Zposition Zrotation Xrotation Yrotation
                      End Site
                      {
                        OFFSET -0.4187 -1.5237 -0.3496
                      }
                    }
                  }
                }
                JOINT LeftFinger0
                {
                  OFFSET -1.42 -1.8761 1.4223
                  CHANNELS 6 Xposition Yposition Zposition Zrotation Xrotation Yrotation
                  JOINT LeftFinger01
                  {
                    OFFSET -1.1471 -3.4929 2.6334
                    CHANNELS 6 Xposition Yposition Zposition Zrotation Xrotation Yrotation
                    JOINT LeftFinger02
                    {
                      OFFSET -0.823 -2.3 1.6571
                      CHANNELS 6 Xposition Yposition Zposition Zrotation Xrotation Yrotation
                      End Site
                      {
                        OFFSET -0.5822 -1.6914 1.1582
                      }
                    }
                  }
                }
              }
            }
          }
        }
        JOINT RightCollar
        {
          OFFSET -2.2603 21.606 7.4023
          CHANNELS 6 Xposition Yposition Zposition Zrotation Xrotation Yrotation
          JOINT RightShoulder
          {
            OFFSET -13.5187 -1.1334 -5.0155
            CHANNELS 6 Xposition Yposition Zposition Zrotation Xrotation Yrotation
            JOINT RightElbow
            {
              OFFSET 0.0994 -28.0499 -0.2431
              CHANNELS 6 Xposition Yposition Zposition Zrotation Xrotation Yrotation
              JOINT RightWrist
              {
                OFFSET -0.0679 -23.3996 -0.1402
                CHANNELS 6 Xposition Yposition Zposition Zrotation Xrotation Yrotation
                JOINT RightFinger1
                {
                  OFFSET -0.7932 -9.0691 2.5189
                  CHANNELS 6 Xposition Yposition Zposition Zrotation Xrotation Yrotation
                  JOINT RightFinger11
                  {
                    OFFSET 0.8272 -3.3923 0.5977
                    CHANNELS 6 Xposition Yposition Zposition Zrotation Xrotation Yrotation
                    JOINT RightFinger12
                    {
                      OFFSET 0.565 -2.3158 0.4082
                      CHANNELS 6 Xposition Yposition Zposition Zrotation Xrotation Yrotation
                      End Site
                      {
                        OFFSET 0.4919 -1.6479 0.2673
                      }
                    }
                  }
                }
                JOINT RightFinger2
                {
                  OFFSET -0.916 -9.2044 0.2193
                  CHANNELS 6 Xposition Yposition Zposition Zrotation Xrotation Yrotation
                  JOINT RightFinger21
                  {
                    OFFSET -0.0117 -4.1944 -0.0248
                    CHANNELS 6 Xposition Yposition Zposition Zrotation Xrotation Yrotation
                    JOINT RightFinger22
                    {
                      OFFSET -0.0071 -2.3249 -0.0142
                      CHANNELS 6 Xposition Yposition Zposition Zrotation Xrotation Yrotation
                      End Site
                      {
                        OFFSET 0.1475 -2.0882 0.0028
                      }
                    }
                  }
                }
                JOINT RightFinger3
                {
                  OFFSET -0.6113 -8.7231 -2.0637
                  CHANNELS 6 Xposition Yposition Zposition Zrotation Xrotation Yrotation
                  JOINT RightFinger31
                  {
                    OFFSET 0.1927 -3.8059 -0.2383
                    CHANNELS 6 Xposition Yposition Zposition Zrotation Xrotation Yrotation
                    JOINT RightFinger32
                    {
                      OFFSET 0.1091 -2.1688 -0.1362
                      CHANNELS 6 Xposition Yposition Zposition Zrotation Xrotation Yrotation
                      End Site
                      {
                        OFFSET 0.2358 -1.9176 -0.0906
                      }
                    }
                  }
                }
                JOINT RightFinger4
                {
                  OFFSET 0.6151 -8.0947 -3.564
                  CHANNELS 6 Xposition Yposition Zposition Zrotation Xrotation Yrotation
                  JOINT RightFinger41
                  {
                    OFFSET 0.4882 -2.341 -0.6462
                    CHANNELS 6 Xposition Yposition Zposition Zrotation Xrotation Yrotation
                    JOINT RightFinger42
                    {
                      OFFSET 0.3574 -1.7166 -0.4742
                      CHANNELS 6 Xposition Yposition Zposition Zrotation Xrotation Yrotation
                      End Site
                      {
                        OFFSET 0.4187 -1.5237 -0.3496
                      }
                    }
                  }
                }
                JOINT RightFinger0
                {
                  OFFSET 1.4199 -1.8761 1.4221
                  CHANNELS 6 Xposition Yposition Zposition Zrotation Xrotation Yrotation
                  JOINT RightFinger01
                  {
                    OFFSET 1.1472 -3.4929 2.6336
                    CHANNELS 6 Xposition Yposition Zposition Zrotation Xrotation Yrotation
                    JOINT RightFinger02
                    {
                      OFFSET 0.8229 -2.3 1.6571
                      CHANNELS 6 Xposition Yposition Zposition Zrotation Xrotation Yrotation
                      End Site
                      {
                        OFFSET 0.5822 -1.6914 1.1582
                      }
                    }
                  }
                }
              }
            }
          }
        }
      }
    }
  }
  JOINT RightHip
  {
    OFFSET -9.412 3.9771 -0.7758
    CHANNELS 6 Xposition Yposition Zposition Zrotation Xrotation Yrotation
    JOINT RightKnee
    {
      OFFSET -0.7531 -40.938 0
      CHANNELS 6 Xposition Yposition Zposition Zrotation Xrotation Yrotation
      JOINT RightAnkle
      {
        OFFSET 0 -40.1986 0
        CHANNELS 6 Xposition Yposition Zposition Zrotation Xrotation Yrotation
        JOINT RightToe
        {
          OFFSET 0 -4.4182 9.239
          CHANNELS 6 Xposition Yposition Zposition Zrotation Xrotation Yrotation
          End Site
          {
            OFFSET 0 0 6.1981
          }
        }
      }
    }
  }
  JOINT LeftHip
  {
    OFFSET 9.4119 3.9773 -0.7758
    CHANNELS 6 Xposition Yposition Zposition Zrotation Xrotation Yrotation
    JOINT LeftKnee
    {
      OFFSET 0.7532 -40.9383 0
      CHANNELS 6 Xposition Yposition Zposition Zrotation Xrotation Yrotation
      JOINT LeftAnkle
      {
        OFFSET 0 -40.1986 0
        CHANNELS 6 Xposition Yposition Zposition Zrotation Xrotation Yrotation
        JOINT LeftToe
        {
          OFFSET 0 -4.4182 9.239
          CHANNELS 6 Xposition Yposition Zposition Zrotation Xrotation Yrotation
          End Site
          {
            OFFSET 0 0 6.1981
          }
        }
      }
    }
  }
}
MOTION
Frames:	4
Frame Time:	0.0333333
0.000591788 3.85393 88.9787 -180 -85.9956 -180 -1.0842e-019 8.7983 -4.7612 -0.00150993 0.412748 -0.0899897 -8.67362e-019 8.0291 0.4195 -0.00237165 0.825492 -0.179978 0 9.9351 -2.2114 -0.00237164 0.825491 -0.179978 0 22.3885 -0.4656 3.42474e-006 12.4992 -1.73782e-005 -0.0001 12.643 3.4389 1.39344e-007 -1.92407 -1.90326e-007 2.2603 21.606 7.4023 -0.269055 -4.37511 -10.3854 13.5163 -1.1332 -5.0146 4.73783 0.70961 22.2949 -0.0995 -28.05 -0.2431 -7.28797 -44.7939 -3.80653 0.0679 -23.3996 -0.1402 -15.4196 9.37632 1.89415 0.7932 -9.069 2.5189 1.59028e-015 0 -1.59028e-015 -0.8272 -3.3923 0.5977 1.59028e-015 0 -3.18055e-015 -0.5649 -2.3158 0.4082 0 9.54166e-015 -0 0.9159 -9.2044 0.2193 1.59028e-015 0 -1.59028e-015 0.0117 -4.1944 -0.0248 -0.0128355 0.00234305 8.21608e-005 0.0071 -2.3249 -0.0142 1.17012e-006 2.30336e-006 8.07231e-007 0.6113 -8.7231 -2.0637 1.59028e-015 0 -1.59028e-015 -0.1927 -3.8059 -0.2383 -0.016022 0.0029919 0.000853987 -0.1091 -2.1688 -0.1362 -4.77083e-015 -3.18055e-015 1.59028e-015 -0.6151 -8.0947 -3.5641 1.59028e-015 0 -1.59028e-015 -0.4882 -2.341 -0.6462 -0.0125878 0.003127 0.0028307 -0.3575 -1.7167 -0.4742 4.77083e-015 -9.54166e-015 -0 -1.42 -1.8761 1.4223 1.59028e-015 0 -1.59028e-015 -1.1471 -3.4929 2.6334 1.59028e-015 0 -3.18055e-015 -0.823 -2.3 1.6571 0 9.54166e-015 -0 -2.2603 21.606 7.4023 1.06449 0.151973 3.75289 -13.5187 -1.1334 -5.0155 -4.86587 2.83905 -16.5888 0.0994 -28.0499 -0.2431 29.5639 -62.8245 21.8802 -0.0679 -23.3996 -0.1402 15.5903 5.2311 0.749138 -0.7932 -9.0691 2.5189 6.36111e-015 -3.18055e-015 1.59028e-015 0.8272 -3.3923 0.5977 -5.49082e-006 -3.29736e-006 -2.13825e-006 0.565 -2.3158 0.4082 2.38542e-015 6.36111e-015 -1.59028e-015 -0.916 -9.2044 0.2193 6.36111e-015 -3.18055e-015 1.59028e-015 -0.0117 -4.1944 -0.0248 0.0129551 0.002317 -8.43163e-005 -0.0071 -2.3249 -0.0142 1.76556e-031 3.18055e-015 -3.18055e-015 -0.6113 -8.7231 -2.0637 6.36111e-015 -3.18055e-015 1.59028e-015 0.1927 -3.8059 -0.2383 0.0163569 0.00303774 -0.000872054 0.1091 -2.1688 -0.1362 -1.06339e-005 -2.12529e-006 -3.1206e-006 0.6151 -8.0947 -3.564 6.36111e-015 -3.18055e-015 1.59028e-015 0.4882 -2.341 -0.6462 0.0145709 0.00367597 -0.00325706 0.3574 -1.7166 -0.4742 7.95139e-016 0 -1.59028e-015 1.4199 -1.8761 1.4221 6.36111e-015 -3.18055e-015 1.59028e-015 1.1472 -3.4929 2.6336 -5.49082e-006 -3.29736e-006 -2.13825e-006 0.8229 -2.3 1.6571 2.38542e-015 6.36111e-015 -1.59028e-015 -9.412 3.9771 -0.7758 -42.307 -28.4007 -30.503 -0.7531 -40.938 -7.10543e-015 -119.014 62.3483 126.13 3.55271e-015 -40.1986 0 -5.57184 8.24536 9.20449 7.10543e-015 -4.4182 9.239 -4.18516e-007 -1.68208e-007 8.18584e-008 9.4119 3.9773 -0.7758 42.0465 -28.3773 30.1423 0.7532 -40.9383 0 119.025 62.3455 -126.144 0 -40.1986 0 5.30291 8.25569 -9.03577 0 -4.4182 9.239 8.373e-007 -3.36507e-007 -1.62304e-007 
0.00057551 3.85408 88.9788 -180 -85.9956 -180 0 8.7983 -4.7612 -0.00145134 0.392696 -0.0899883 0 8.0291 0.4195 -0.00228596 0.785346 -0.179973 6.9389e-018 9.9351 -2.2114 -0.00228601 0.785376 -0.179971 0 22.3885 -0.4656 2.71406e-006 12.8333 -1.29179e-005 -0.0001 12.643 3.4389 -2.42879e-007 -1.53945 6.23095e-008 2.2603 21.606 7.4023 -0.543111 -4.23327 -10.4691 13.5163 -1.1332 -5.0146 4.94574 0.686945 22.315 -0.0995 -28.05 -0.2431 -7.13032 -44.6315 -3.68286 0.0679 -23.3996 -0.1402 -15.4243 9.23024 1.8166 0.7932 -9.069 2.5189 -3.18055e-015 -3.18055e-015 1.59028e-015 -0.8272 -3.3923 0.5977 -3.18055e-015 -6.36111e-015 -0 -0.5649 -2.3158 0.4082 -1.59028e-015 -3.18055e-015 1.59028e-015 0.9159 -9.2044 0.2193 -3.18055e-015 -3.18055e-015 1.59028e-015 0.0117 -4.1944 -0.0248 -0.0128466 0.00232993 8.69095e-005 0.0071 -2.3249 -0.0142 -3.18055e-015 0 -1.59028e-015 0.6113 -8.7231 -2.0637 -3.18055e-015 -3.18055e-015 1.59028e-015 -0.1927 -3.8059 -0.2383 -0.0160493 0.00299727 0.000852902 -0.1091 -2.1688 -0.1362 1.59028e-015 3.18055e-015 -3.18055e-015 -0.6151 -8.0947 -3.5641 -3.18055e-015 -3.18055e-015 1.59028e-015 -0.4882 -2.341 -0.6462 -0.0125913 0.00312154 0.00282484 -0.3575 -1.7167 -0.4742 1.59028e-015 -6.36111e-015 -1.59028e-015 -1.42 -1.8761 1.4223 -3.18055e-015 -3.18055e-015 1.59028e-015 -1.1471 -3.4929 2.6334 -3.18055e-015 -6.36111e-015 -0 -0.823 -2.3 1.6571 -1.59028e-015 -3.18055e-015 1.59028e-015 -2.2603 21.606 7.4023 1.27639 0.139609 3.86737 -13.5187 -1.1334 -5.0155 -5.05878 2.74971 -16.616 0.0994 -28.0499 -0.2431 29.074 -62.6462 21.428 -0.0679 -23.3996 -0.1402 15.5904 5.2311 0.749136 -0.7932 -9.0691 2.5189 -3.97569e-015 0 -0 0.8272 -3.3923 0.5977 -3.18055e-015 -3.18055e-015 1.59028e-015 0.565 -2.3158 0.4082 2.64834e-031 -3.18055e-015 4.77083e-015 -0.916 -9.2044 0.2193 -3.97569e-015 0 -0 -0.0117 -4.1944 -0.0248 0.0129576 0.00231514 -8.22372e-005 -0.0071 -2.3249 -0.0142 -1.67864e-006 -4.67532e-006 -7.69557e-007 -0.6113 -8.7231 -2.0637 -3.97569e-015 0 -0 0.1927 -3.8059 -0.2383 0.0163536 0.00303849 -0.000871909 0.1091 -2.1688 -0.1362 -1.03796e-006 1.15505e-006 -3.47034e-006 0.6151 -8.0947 -3.564 -3.97569e-015 0 -0 0.4882 -2.341 -0.6462 0.0145802 0.00367264 -0.0032577 0.3574 -1.7166 -0.4742 2.38542e-015 0 1.59028e-015 1.4199 -1.8761 1.4221 -3.97569e-015 0 -0 1.1472 -3.4929 2.6336 -3.18055e-015 -3.18055e-015 1.59028e-015 0.8229 -2.3 1.6571 2.64834e-031 -3.18055e-015 4.77083e-015 -9.412 3.9771 -0.7758 -42.0438 -28.4194 -30.202 -0.7531 -40.938 0 -119.014 62.3483 126.129 -7.10543e-015 -40.1986 0 -5.31228 8.21419 9.01451 -7.10543e-015 -4.4182 9.239 -6.47368e-008 -1.914e-008 -1.59466e-006 9.4119 3.9773 -0.7758 41.7922 -28.3957 29.8539 0.7532 -40.9383 -7.10543e-015 119.025 62.3456 -126.143 -3.55271e-015 -40.1986 -1.42109e-014 5.05277 8.22335 -8.85192 0 -4.4182 9.239 -6.27957e-007 1.15471e-006 1.2185e-007 
0.000558447 3.85423 88.9788 -180 -85.9956 -180 1.0842e-019 8.7983 -4.7612 -0.00139261 0.372554 -0.0899702 0 8.0291 0.4195 -0.00220013 0.745115 -0.179935 3.46945e-018 9.9351 -2.2114 -0.00220015 0.745129 -0.179935 6.9389e-018 22.3885 -0.4656 1.87729e-005 13.1677 -8.98428e-005 -0.0001 12.643 3.4389 2.81791e-008 -1.15491 5.21322e-009 2.2603 21.606 7.4023 -0.816904 -4.09071 -10.5522 13.5163 -1.1332 -5.0146 5.15363 0.664427 22.3352 -0.0995 -28.05 -0.2431 -6.97355 -44.4689 -3.56018 0.0679 -23.3996 -0.1402 -15.4294 9.08409 1.73906 0.7932 -9.069 2.5189 -1.5339e-006 -1.49229e-007 3.24452e-006 -0.8272 -3.3923 0.5977 1.59028e-015 0 -0 -0.5649 -2.3158 0.4082 1.59028e-015 0 3.18055e-015 0.9159 -9.2044 0.2193 -1.5339e-006 -1.49229e-007 3.24452e-006 0.0117 -4.1944 -0.0248 -0.0128104 0.00233961 8.71085e-005 0.0071 -2.3249 -0.0142 1.76556e-031 -3.18055e-015 3.18055e-015 0.6113 -8.7231 -2.0637 -1.5339e-006 -1.49229e-007 3.24452e-006 -0.1927 -3.8059 -0.2383 -0.0160451 0.00300302 0.000850386 -0.1091 -2.1688 -0.1362 -1.59028e-015 0 1.59028e-015 -0.6151 -8.0947 -3.5641 -1.5339e-006 -1.49229e-007 3.24452e-006 -0.4882 -2.341 -0.6462 -0.0125233 0.00311327 0.00281274 -0.3575 -1.7167 -0.4742 -1.59028e-015 -9.54166e-015 -1.59028e-015 -1.42 -1.8761 1.4223 -1.5339e-006 -1.49229e-007 3.24452e-006 -1.1471 -3.4929 2.6334 1.59028e-015 0 -0 -0.823 -2.3 1.6571 1.59028e-015 0 3.18055e-015 -2.2603 21.606 7.4023 1.48832 0.127996 3.98181 -13.5187 -1.1334 -5.0155 -5.25175 2.66043 -16.6436 0.0994 -28.0499 -0.2431 28.5902 -62.466 20.9818 -0.0679 -23.3996 -0.1402 15.5903 5.23104 0.749155 -0.7932 -9.0691 2.5189 3.72385e-006 -7.03708e-007 -1.73734e-006 0.8272 -3.3923 0.5977 -2.38542e-015 3.18055e-015 1.59028e-015 0.565 -2.3158 0.4082 -2.38542e-015 6.36111e-015 -1.59028e-015 -0.916 -9.2044 0.2193 3.72385e-006 -7.03708e-007 -1.73734e-006 -0.0117 -4.1944 -0.0248 0.0129316 0.00231281 -8.8006e-005 -0.0071 -2.3249 -0.0142 -7.95139e-016 0 -0 -0.6113 -8.7231 -2.0637 3.72385e-006 -7.03708e-007 -1.73734e-006 0.1927 -3.8059 -0.2383 0.0163329 0.0030413 -0.000872233 0.1091 -2.1688 -0.1362 3.97569e-015 -6.36111e-015 -1.59028e-015 0.6151 -8.0947 -3.564 3.72385e-006 -7.03708e-007 -1.73734e-006 0.4882 -2.341 -0.6462 0.0145507 0.00367452 -0.00325364 0.3574 -1.7166 -0.4742 -0 0 1.59028e-015 1.4199 -1.8761 1.4221 3.72385e-006 -7.03708e-007 -1.73734e-006 1.1472 -3.4929 2.6336 -2.38542e-015 3.18055e-015 1.59028e-015 0.8229 -2.3 1.6571 -2.38542e-015 6.36111e-015 -1.59028e-015 -9.412 3.9771 -0.7758 -41.7804 -28.437 -29.9009 -0.7531 -40.938 0 -119.014 62.3483 126.128 3.55271e-015 -40.1986 0 -5.05285 8.18219 8.82466 0 -4.4182 9.239 -1.46476e-006 1.18029e-006 2.86899e-007 9.4119 3.9773 -0.7758 41.5381 -28.4129 29.5655 0.7532 -40.9383 7.10543e-015 119.024 62.3458 -126.142 -7.10543e-015 -40.1986 0 4.80279 8.19029 -8.6682 7.10543e-015 -4.4182 9.239 -4.8111e-007 -1.62638e-006 -1.51357e-006 
0.000542168 3.85439 88.9789 -180 -85.9956 -180 0 8.7983 -4.7612 -0.00133408 0.352529 -0.0899704 -1.73472e-018 8.0291 0.4195 -0.00211468 0.705045 -0.17994 3.46945e-018 9.9351 -2.2114 -0.00211471 0.70505 -0.179938 0 22.3885 -0.4656 1.37688e-005 13.5017 -6.33613e-005 -0.0001 12.643 3.4389 -2.02074e-007 -0.770348 -6.7638e-008 2.2603 21.606 7.4023 -1.09042 -3.94818 -10.6345 13.5163 -1.1332 -5.0146 5.36158 0.641919 22.3555 -0.0995 -28.05 -0.2431 -6.81777 -44.306 -3.43847 0.0679 -23.3996 -0.1402 -15.4345 8.93799 1.66154 0.7932 -9.069 2.5189 1.59028e-015 -6.36111e-015 3.18055e-015 -0.8272 -3.3923 0.5977 1.59028e-015 -6.36111e-015 3.18055e-015 -0.5649 -2.3158 0.4082 1.59028e-015 -6.36111e-015 3.18055e-015 0.9159 -9.2044 0.2193 1.59028e-015 -6.36111e-015 3.18055e-015 0.0117 -4.1944 -0.0248 -0.0128055 0.00232997 8.15075e-005 0.0071 -2.3249 -0.0142 -3.18055e-015 -3.18055e-015 -0 0.6113 -8.7231 -2.0637 1.59028e-015 -6.36111e-015 3.18055e-015 -0.1927 -3.8059 -0.2383 -0.0160793 0.00300347 0.000852289 -0.1091 -2.1688 -0.1362 -1.59028e-015 -3.18055e-015 1.59028e-015 -0.6151 -8.0947 -3.5641 1.59028e-015 -6.36111e-015 3.18055e-015 -0.4882 -2.341 -0.6462 -0.0125907 0.00312805 0.00282735 -0.3575 -1.7167 -0.4742 1.76556e-031 6.36111e-015 -1.59028e-015 -1.42 -1.8761 1.4223 1.59028e-015 -6.36111e-015 3.18055e-015 -1.1471 -3.4929 2.6334 1.59028e-015 -6.36111e-015 3.18055e-015 -0.823 -2.3 1.6571 1.59028e-015 -6.36111e-015 3.18055e-015 -2.2603 21.606 7.4023 1.70026 0.116412 4.0964 -13.5187 -1.1334 -5.0155 -5.44464 2.5713 -16.6715 0.0994 -28.0499 -0.2431 28.1124 -62.2843 20.5417 -0.0679 -23.3996 -0.1402 15.5904 5.23106 0.749165 -0.7932 -9.0691 2.5189 -8.78857e-006 -3.60364e-006 -3.06102e-006 0.8272 -3.3923 0.5977 -7.95139e-016 -3.18055e-015 -0 0.565 -2.3158 0.4082 0 0 -0 -0.916 -9.2044 0.2193 -8.78857e-006 -3.60364e-006 -3.06102e-006 -0.0117 -4.1944 -0.0248 0.0129504 0.00231607 -8.96409e-005 -0.0071 -2.3249 -0.0142 2.38542e-015 -9.54166e-015 -0 -0.6113 -8.7231 -2.0637 -8.78857e-006 -3.60364e-006 -3.06102e-006 0.1927 -3.8059 -0.2383 0.0163342 0.00303642 -0.000869324 0.1091 -2.1688 -0.1362 1.45793e-006 1.09956e-007 8.27083e-007 0.6151 -8.0947 -3.564 -8.78857e-006 -3.60364e-006 -3.06102e-006 0.4882 -2.341 -0.6462 0.014581 0.00368078 -0.00325816 0.3574 -1.7166 -0.4742 -5.56597e-015 0 -1.59028e-015 1.4199 -1.8761 1.4221 -8.78857e-006 -3.60364e-006 -3.06102e-006 1.1472 -3.4929 2.6336 -7.95139e-016 -3.18055e-015 -0 0.8229 -2.3 1.6571 0 0 -0 -9.412 3.9771 -0.7758 -41.5169 -28.4533 -29.5997 -0.7531 -40.938 -7.10543e-015 -119.014 62.3484 126.127 0 -40.1986 0 -4.79354 8.14934 8.63499 -7.10543e-015 -4.4182 9.239 -3.40117e-007 2.22797e-006 -3.14839e-006 9.4119 3.9773 -0.7758 41.2836 -28.429 29.2769 0.7532 -40.9383 7.10543e-015 119.023 62.3458 -126.14 -3.55272e-015 -40.1986 0 4.55294 8.1564 -8.48464 -7.10543e-015 -4.4182 9.239 -6.9085e-007 -1.20068e-006 -1.47281e-006 
